<svg xmlns="http://www.w3.org/2000/svg" viewBox="0 0 1600 900" role="img" aria-label="SHOT 08 storyboard plan">
<defs><linearGradient id="bg" x1="0" y1="0" x2="1" y2="1"><stop stop-color="#101216"/><stop offset=".55" stop-color="#24201c"/><stop offset="1" stop-color="#0a0c10"/></linearGradient><linearGradient id="gold" x1="0" x2="1"><stop stop-color="#f6d69b" stop-opacity="0"/><stop offset="1" stop-color="#d49a4e" stop-opacity=".7"/></linearGradient></defs>
<rect width="1600" height="900" fill="url(#bg)"/>
<path d="M980 110 L1600 260 L1600 560 L950 380 Z" fill="url(#gold)" opacity=".34"/>
<g transform="translate(545 180)"><circle cx="250" cy="140" r="70" fill="#101216"/><path d="M165 238 C205 185 304 184 344 232 C382 279 405 401 386 560 L140 560 C124 430 128 305 165 238 Z" fill="#12151a"/><path d="M330 236 C379 302 410 388 438 470" stroke="#d6a35b" stroke-width="15" stroke-linecap="round" opacity=".7"/></g>
<g fill="none" stroke="#ffffff" stroke-opacity=".3" stroke-width="2"><rect x="60" y="60" width="1480" height="780" rx="20"/><line x1="800" y1="60" x2="800" y2="840"/><line x1="60" y1="450" x2="1540" y2="450"/><rect x="560" y="180" width="480" height="540" stroke-dasharray="12 12"/></g>
<g fill="#fff" font-family="Arial,Helvetica,sans-serif"><text x="76" y="105" font-size="22" letter-spacing="4" opacity=".8">SHOT 08 · STORYBOARD / SHOT PLAN</text><text x="76" y="138" font-size="14" letter-spacing="2" opacity=".48">12S · HERO REVEAL · CLIENT VISIBLE</text><text x="100" y="790" font-size="18" opacity=".72">0–4s 进入暗部</text><text x="665" y="790" font-size="18" opacity=".72">4–10s 侧光建立</text><text x="1260" y="790" font-size="18" opacity=".72">10–12s Hero Reveal</text></g>
</svg>