<svg xmlns="http://www.w3.org/2000/svg" viewBox="0 0 1600 900" role="img" aria-label="SHOT 08 V3 formal review frame">
<defs><linearGradient id="bg" x1="0" x2="1" y2="1"><stop stop-color="#07090c"/><stop offset=".48" stop-color="#14171b"/><stop offset="1" stop-color="#060709"/></linearGradient><radialGradient id="warm" cx="78%" cy="43%" r="50%"><stop stop-color="#f6ca82" stop-opacity=".63"/><stop offset=".34" stop-color="#9f6730" stop-opacity=".22"/><stop offset="1" stop-color="#050608" stop-opacity="0"/></radialGradient><linearGradient id="beam"><stop stop-color="#ffe1a4" stop-opacity="0"/><stop offset=".55" stop-color="#db9b4b" stop-opacity=".37"/><stop offset="1" stop-color="#ffe7b6" stop-opacity=".02"/></linearGradient><linearGradient id="body" x1="0" y1="0" x2="1" y2="1"><stop stop-color="#090b0e"/><stop offset=".58" stop-color="#171a1f"/><stop offset="1" stop-color="#08090b"/></linearGradient><filter id="blur"><feGaussianBlur stdDeviation="25"/></filter></defs>
<rect width="1600" height="900" fill="url(#bg)"/><rect width="1600" height="900" fill="url(#warm)"/><path d="M965 100 L1600 222 L1600 575 L920 365 Z" fill="url(#beam)" filter="url(#blur)"/><g opacity=".26" stroke="#b69a78" fill="none"><path d="M60 628 H1540"/><path d="M240 150 V760M440 145 V760M1240 155 V760M1400 170 V760"/><path d="M980 570 L1510 420M1030 640 L1540 525"/></g>
<g transform="translate(515 195)"><ellipse cx="255" cy="585" rx="210" ry="31" fill="#000" opacity=".44"/><circle cx="246" cy="130" r="68" fill="url(#body)"/><path d="M164 226 C194 184 291 180 332 224 C370 266 398 394 383 553 L127 553 C119 426 125 302 164 226 Z" fill="url(#body)"/><path d="M325 225 C370 285 406 370 431 460" stroke="#bf8241" stroke-width="15" stroke-linecap="round" opacity=".52"/></g>
<g transform="translate(1100 565)"><ellipse cx="160" cy="174" rx="178" ry="29" fill="#000" opacity=".54"/><path d="M38 68 Q38 36 73 36 H274 Q307 36 310 68 L322 132 Q325 155 297 155 H54 Q27 155 31 131 Z" fill="#15191f" stroke="#705638" stroke-width="2"/><path d="M68 62 H276" stroke="#c59051" stroke-width="3" opacity=".55"/></g>
<g fill="#fff" font-family="Arial,Helvetica,sans-serif"><text x="72" y="86" font-size="20" letter-spacing="5" opacity=".68">SHOT 08 · V3</text><text x="72" y="120" font-size="13" letter-spacing="2.3" opacity=".4">FORMAL REVIEW · 00:12</text></g><g fill="#eab66d" opacity=".58"><circle cx="1278" cy="278" r="7"/><circle cx="1378" cy="341" r="6"/><circle cx="1160" cy="236" r="5"/></g><rect x="34" y="34" width="1532" height="832" rx="26" fill="none" stroke="#fff" stroke-opacity=".07"/></svg>